<svg width="27" height="27" viewBox="0 0 27 27" fill="none" xmlns="http://www.w3.org/2000/svg">
<path d="M13.5 1.45945C15.0812 1.45945 16.6469 1.77088 18.1077 2.37598C19.5686 2.98107 20.8959 3.86797 22.014 4.98604C23.132 6.10411 24.0189 7.43145 24.624 8.89227C25.2291 10.3531 25.5406 11.9188 25.5406 13.5C25.5406 15.0812 25.2291 16.6469 24.624 18.1077C24.0189 19.5685 23.132 20.8959 22.014 22.0139C20.8959 23.132 19.5686 24.0189 18.1077 24.624C16.6469 25.2291 15.0812 25.5405 13.5 25.5405L13.5 13.5L13.5 1.45945Z" fill="#3B3535"/>
<circle cx="13.5" cy="13.5" r="11.5" transform="rotate(-90 13.5 13.5)" stroke="#3B3535" stroke-width="4"/>
</svg>
