<svg width="27" height="27" viewBox="0 0 27 27" fill="none" xmlns="http://www.w3.org/2000/svg">
<path d="M13.5005 1.45945C11.9193 1.45945 10.3536 1.77088 8.89276 2.37598C7.43193 2.98107 6.1046 3.86797 4.98653 4.98604C3.86846 6.10411 2.98156 7.43145 2.37646 8.89227C1.77137 10.3531 1.45993 11.9188 1.45993 13.5C1.45993 15.0812 1.77137 16.6469 2.37647 18.1077C2.98156 19.5685 3.86846 20.8959 4.98653 22.0139C6.1046 23.132 7.43193 24.0189 8.89276 24.624C10.3536 25.2291 11.9193 25.5405 13.5005 25.5405L13.5005 13.5L13.5005 1.45945Z" fill="white"/>
<circle cx="13.5" cy="13.5" r="11.5" transform="rotate(-90 13.5 13.5)" stroke="white" stroke-width="4"/>
</svg>
